<?xml version="1.0" encoding="UTF-8"?>
<svg width="79px" height="80px" viewBox="0 0 79 80" version="1.1" xmlns="http://www.w3.org/2000/svg" xmlns:xlink="http://www.w3.org/1999/xlink">
    <!-- Generator: Sketch 46.2 (44496) - http://www.bohemiancoding.com/sketch -->
    <title>smile copy</title>
    <desc>Created with Sketch.</desc>
    <defs></defs>
    <g id="Pesquisa-e-feedback" stroke="none" stroke-width="1" fill="none" fill-rule="evenodd">
        <g id="Pesquisas-e-feedback" transform="translate(-541.000000, -405.000000)" fill-rule="nonzero" fill="#ff9b7c">
            <g id="Group-3" transform="translate(341.000000, 324.000000)">
                <g id="Group-2" transform="translate(24.000000, 28.000000)">
                    <g id="Group-7" transform="translate(0.000000, 37.000000)">
                        <g id="smile-copy" transform="translate(176.000000, 16.124031)">
                            <path d="M39.5,79.6124031 C28.9472632,79.6124031 19.0306842,75.4725581 11.5672632,67.9554712 C4.10384211,60.4383843 0,50.4407426 0,39.8103917 C0,29.1758507 4.108,19.182399 11.5672632,11.661122 C19.0265263,4.13984496 28.9472632,0 39.5,0 C50.0527368,0 59.9693158,4.13984496 67.4327368,11.661122 C74.8961579,19.182399 79,29.1758507 79,39.8103917 C79,50.4449327 74.892,60.4383843 67.4327368,67.9554712 C59.9734737,75.4725581 50.0527368,79.6124031 39.5,79.6124031 Z M39.5,4.19012648 C20.0119474,4.19012648 4.15789474,20.1670787 4.15789474,39.8062016 C4.15789474,59.4453244 20.0119474,75.4222766 39.5,75.4222766 C58.9880526,75.4222766 74.8421053,59.4453244 74.8421053,39.8062016 C74.8421053,20.1670787 58.9880526,4.19012648 39.5,4.19012648 Z" id="Shape"></path>
                            <path d="M27,29.2248062 C23.692,29.2248062 21,26.511938 21,23.1782946 C21,19.8446512 23.692,17.1317829 27,17.1317829 C30.308,17.1317829 33,19.8446512 33,23.1782946 C33,26.511938 30.308,29.2248062 27,29.2248062 Z M27,21.1627907 C25.896,21.1627907 25,22.0657364 25,23.1782946 C25,24.2908527 25.896,25.1937984 27,25.1937984 C28.104,25.1937984 29,24.2908527 29,23.1782946 C29,22.0657364 28.104,21.1627907 27,21.1627907 Z" id="Shape"></path>
                            <path d="M52,29.2248062 C48.692,29.2248062 46,26.511938 46,23.1782946 C46,19.8446512 48.692,17.1317829 52,17.1317829 C55.308,17.1317829 58,19.8446512 58,23.1782946 C58,26.511938 55.308,29.2248062 52,29.2248062 Z M52,21.1627907 C50.896,21.1627907 50,22.0657364 50,23.1782946 C50,24.2908527 50.896,25.1937984 52,25.1937984 C53.104,25.1937984 54,24.2908527 54,23.1782946 C54,22.0657364 53.104,21.1627907 52,21.1627907 Z" id="Shape"></path>
                            <path d="M39.5,61.4728682 C28.748,61.4728682 20,52.6570543 20,41.8217054 C20,40.9872868 20.672,40.3100775 21.5,40.3100775 C22.328,40.3100775 23,40.9872868 23,41.8217054 C23,50.9912403 30.401,58.4496124 39.5,58.4496124 C48.599,58.4496124 56,50.9912403 56,41.8217054 C56,40.9872868 56.672,40.3100775 57.5,40.3100775 C58.328,40.3100775 59,40.9872868 59,41.8217054 C59,52.6570543 50.252,61.4728682 39.5,61.4728682 Z" id="Shape" transform="translate(39.500000, 50.891473) scale(1, -1) translate(-39.500000, -50.891473) "></path>
                        </g>
                    </g>
                </g>
            </g>
        </g>
    </g>
</svg>
