<?xml version="1.0" encoding="UTF-8"?>
<svg width="79px" height="80px" viewBox="0 0 79 80" version="1.1" xmlns="http://www.w3.org/2000/svg" xmlns:xlink="http://www.w3.org/1999/xlink">
    <!-- Generator: Sketch 46.2 (44496) - http://www.bohemiancoding.com/sketch -->
    <title>Group</title>
    <desc>Created with Sketch.</desc>
    <defs></defs>
    <g id="Pesquisa-e-feedback" stroke="none" stroke-width="1" fill="none" fill-rule="evenodd" opacity="0.62109375">
        <g id="Pesquisas-e-feedback" transform="translate(-391.000000, -408.000000)" fill-rule="nonzero" fill="#30ca54">
            <g id="Group-3" transform="translate(341.000000, 324.000000)">
                <g id="Group-2" transform="translate(24.000000, 28.000000)">
                    <g id="Group-7" transform="translate(0.000000, 37.000000)">
                        <g id="smile" transform="translate(26.000000, 19.147287)">
                            <g id="Group">
                                <path d="M39.5,79.6124031 C28.9472632,79.6124031 19.0306842,75.4725581 11.5672632,67.9554712 C4.10384211,60.4383843 0,50.4407426 0,39.8103917 C0,29.1758507 4.108,19.182399 11.5672632,11.661122 C19.0265263,4.13984496 28.9472632,-3.55271368e-14 39.5,-3.55271368e-14 C50.0527368,-3.55271368e-14 59.9693158,4.13984496 67.4327368,11.661122 C74.8961579,19.182399 79,29.1758507 79,39.8103917 C79,50.4449327 74.892,60.4383843 67.4327368,67.9554712 C59.9734737,75.4725581 50.0527368,79.6124031 39.5,79.6124031 Z M39.5,4.19012648 C20.0119474,4.19012648 4.15789474,20.1670787 4.15789474,39.8062016 C4.15789474,59.4453244 20.0119474,75.4222766 39.5,75.4222766 C58.9880526,75.4222766 74.8421053,59.4453244 74.8421053,39.8062016 C74.8421053,20.1670787 58.9880526,4.19012648 39.5,4.19012648 Z" id="Shape"></path>
                                <path d="M27,29.2248062 C23.692,29.2248062 21,26.511938 21,23.1782946 C21,19.8446512 23.692,17.1317829 27,17.1317829 C30.308,17.1317829 33,19.8446512 33,23.1782946 C33,26.511938 30.308,29.2248062 27,29.2248062 Z M27,21.1627907 C25.896,21.1627907 25,22.0657364 25,23.1782946 C25,24.2908527 25.896,25.1937984 27,25.1937984 C28.104,25.1937984 29,24.2908527 29,23.1782946 C29,22.0657364 28.104,21.1627907 27,21.1627907 Z" id="Shape"></path>
                                <path d="M52,29.2248062 C48.692,29.2248062 46,26.511938 46,23.1782946 C46,19.8446512 48.692,17.1317829 52,17.1317829 C55.308,17.1317829 58,19.8446512 58,23.1782946 C58,26.511938 55.308,29.2248062 52,29.2248062 Z M52,21.1627907 C50.896,21.1627907 50,22.0657364 50,23.1782946 C50,24.2908527 50.896,25.1937984 52,25.1937984 C53.104,25.1937984 54,24.2908527 54,23.1782946 C54,22.0657364 53.104,21.1627907 52,21.1627907 Z" id="Shape"></path>
                                <path d="M39,66.5116279 C24.1126154,66.5116279 12,54.3374086 12,39.3743079 C12,38.2220155 12.9304615,37.2868217 14.0769231,37.2868217 C15.2233846,37.2868217 16.1538462,38.2220155 16.1538462,39.3743079 C16.1538462,52.0369989 26.4013846,62.3366556 39,62.3366556 C51.5986154,62.3366556 61.8461538,52.0369989 61.8461538,39.3743079 C61.8461538,38.2220155 62.7766154,37.2868217 63.9230769,37.2868217 C65.0695385,37.2868217 66,38.2220155 66,39.3743079 C66,54.3374086 53.8873846,66.5116279 39,66.5116279 Z" id="Shape"></path>
                            </g>
                        </g>
                    </g>
                </g>
            </g>
        </g>
    </g>
</svg>
